<svg width="815" height="523" viewBox="0 0 815 523" fill="none" xmlns="http://www.w3.org/2000/svg">
<path d="M20.7808 428.556C35.8493 421.268 51.693 417.973 67.7263 416.503C88.7092 414.579 109.401 410.983 130.159 407.695C156.369 403.544 182.627 399.745 209.005 396.832C225.627 394.997 242.269 393.338 258.906 391.639C275.051 389.99 291.187 388.232 307.353 386.826C318.422 385.863 329.539 385.461 340.629 384.739C359.832 383.489 379.032 382.185 398.233 380.907C398.897 380.863 399.564 380.843 400.23 380.832C419.863 380.531 439.512 380.618 459.125 379.828C480.825 378.954 502.726 378.824 523.594 371.557C539.605 365.981 554.099 358.111 565.694 345.077C584.443 323.999 593.068 298.808 597.881 271.71C602.089 248.018 603.718 224.029 606.81 200.215C609.587 178.827 612.791 157.439 621.722 137.49C630.851 117.099 642.378 98.4249 661.221 85.4454C674.965 75.9782 690.283 70.6959 707.036 70.9733C719.912 71.1865 732.252 74.4164 744.11 79.6498C757.306 85.4738 769.457 92.8196 780.061 102.622C787.048 109.08 791.513 116.743 791.386 126.63C791.345 129.805 790.351 132.434 788.181 135.26C777.899 130.066 767.374 125.684 756.821 121.368C744.316 116.253 731.703 111.563 717.856 112.097C699.416 112.81 683.323 118.935 671.595 133.668C665.49 141.337 661.213 150.187 657.928 159.544C650.099 181.851 645.155 204.861 641.847 228.152C639.31 246.022 637.501 264.023 634.124 281.749C628.886 309.241 621.857 336.326 606.393 360.126C592.777 381.083 574.783 396.497 549.571 402.608C538.361 405.325 527.204 406.769 515.77 407.524C496.793 408.777 477.863 410.739 458.902 412.257C448.323 413.105 437.713 413.562 427.13 414.367C411.602 415.549 396.104 417.275 380.558 418.016C370.433 418.499 360.385 419.654 350.287 420.314C334.4 421.353 318.537 422.747 302.655 423.874C292.057 424.626 281.439 425.079 270.843 425.838C256.314 426.879 241.798 428.097 227.274 429.21C221.816 429.629 216.357 430.116 210.889 430.314C193.983 430.923 177.183 432.854 160.337 434.205C150.087 435.027 139.815 435.565 129.561 436.326C113.527 437.516 97.5013 438.817 81.4679 440.013C71.6989 440.741 61.9096 441.219 52.1512 442.062C36.1605 443.443 20.0416 442.926 4.12449 445.358C3.14717 445.507 2.12533 445.529 0.683594 444.025C5.67361 436.944 12.9107 432.642 20.7808 428.556Z" fill="#3DAA35"/>
<path d="M187.358 244.64C189.034 260.847 190.495 276.669 192.439 292.433C193.711 302.751 194.727 313.224 199.88 322.622C203.425 329.085 208.978 331.955 214.475 330.201C217.825 329.132 219.802 327.186 219.709 323.319C219.467 313.254 216.014 303.782 214.5 293.955C213.659 288.499 214.256 287.759 219.492 286.522C225.206 285.173 230.927 284.567 236.763 284.599C238.8 284.611 240.302 284.941 240.578 287.446C241.357 294.524 242.835 301.449 244.967 308.271C245.84 311.067 247.203 313.39 249.027 315.889C251.501 314.049 251.803 311.099 253.14 308.76C262.008 293.251 272.318 278.856 289.66 272.073C305.811 265.756 322.667 262.928 339.878 267.545C352.99 271.063 359.29 279.933 359.362 293.604C359.398 300.271 359.516 306.844 356.397 313.11C354.837 316.242 357.912 319.919 362.716 320.777C368.668 321.84 374.706 321.191 380.574 320.174C396.261 317.458 409.362 309.605 421.04 299.045C424.799 295.646 429.886 293.804 433.418 288.614C414.903 287.901 406.313 275.096 397.986 260.824C396.374 266.761 398.222 271.802 398.893 276.798C399.688 282.708 401.013 288.575 402.529 294.35C403.435 297.804 402.462 299.496 399.103 299.956C391.488 300.999 383.844 300.854 376.198 300.373C374.296 300.253 373.858 298.892 373.617 297.273C371.837 285.309 369.531 273.457 369.456 261.232C369.416 254.806 368.755 248.319 368.646 241.84C368.59 238.478 369.977 236.671 373.227 235.745C386.882 231.857 400.85 231.908 414.846 232.178C418.664 232.251 419.113 235.377 419.947 238.02C422.553 246.275 425.337 254.474 430.393 261.6C432.681 264.825 435.166 268.129 438.24 270.529C444.001 275.029 450.398 277.186 457.585 273.116C459.87 271.823 462.751 271.577 465.025 270.27C470.464 267.144 475.361 267.168 480.755 270.737C485.712 274.016 491.285 276.358 496.551 279.18C499.17 280.585 499.027 282.152 496.454 283.439C491.692 285.821 486.896 288.135 482.093 290.435C466.009 298.138 452.3 309.002 439.381 321.215C422.596 337.082 402.721 346.615 379.304 348.34C371.331 348.928 363.452 349.702 355.478 348.581C349.763 347.778 344.858 345.436 341.383 340.906C338.515 337.166 335.748 337.72 332.479 339.935C323.55 345.984 313.542 349.44 303.192 352.081C293.92 354.447 284.457 354.37 274.997 354.41C266.747 354.445 264.275 357.303 265.934 365.555C266.591 368.819 265.424 370.346 262.617 371.066C256.339 372.676 250.023 374.142 243.739 375.729C240.065 376.657 239.828 374.013 239.757 371.711C239.582 366.05 239.682 360.381 239.663 354.715C239.658 353.223 239.885 351.527 238.275 350.719C236.605 349.881 235.531 351.313 234.331 352.16C220.85 361.684 202.777 361.203 190.044 350.836C187.786 348.998 186.47 349.176 184.836 351.512C174.785 365.878 148.047 366.208 137.932 350.259C137.05 348.868 136.078 347.484 133.814 346.836C131.1 350.942 127.97 354.922 124.443 358.63C114.494 369.088 101.54 372.773 88.0678 374.116C79.2552 374.994 70.1114 375.421 61.2262 373.318C41.4446 368.636 30.6406 353.632 29.9895 333.663C29.429 316.473 33.8026 300.888 46.4973 288.769C58.2937 277.507 72.7852 271.612 89.0333 270.09C91.3942 269.868 92.6577 271.123 93.697 273.069C96.4433 278.213 96.5516 283.919 97.2205 289.472C97.5984 292.608 95.0282 292.928 92.5609 293.367C79.0026 295.783 67.8598 302.18 60.7851 314.272C54.6155 324.817 53.7051 340.421 63.3894 350.501C72.9779 360.482 83.2936 360.86 93.9935 354.252C109.431 344.718 116.625 329.896 117.551 311.69C119.045 282.328 111.675 254.421 104.452 226.449C102.417 218.564 100.606 210.611 98.2601 202.82C97.3235 199.71 98.3574 198.306 100.905 197.549C106.639 195.845 112.417 194.278 118.205 192.765C123.238 191.448 125.158 194.614 126.09 198.702C128.27 208.26 130.48 217.816 132.387 227.431C137.414 252.773 143.045 278.015 143.38 304.062C143.501 313.482 145.218 322.599 153.135 329.3C156.079 331.791 159.343 333.775 162.897 333.129C166.946 332.392 167.816 328.335 168.809 324.725C170.87 317.237 169.43 309.804 168.354 302.475C166.138 287.387 164.385 272.252 162.733 257.099C160.882 240.108 159.291 223.084 156.537 206.203C155.243 198.269 156.272 196.303 163.781 193.766C168.183 192.279 172.689 191.08 177.193 189.921C179.932 189.216 181.808 190.298 182.112 193.282C183.571 207.635 184.986 221.992 186.433 236.346C186.698 238.978 187.04 241.603 187.358 244.64ZM275.008 325.27C274.194 327.184 274.339 328.879 276.873 328.493C288.835 326.671 301.057 325.879 312.351 321.058C321.498 317.154 327.996 310.51 331.014 300.848C333.743 292.111 327.495 283.409 319.306 284.459C310.329 285.609 302.675 289.754 295.58 295.105C285.542 302.676 279.754 313.187 275.008 325.27Z" fill="#E82F2A"/>
<path d="M713.451 312.223C708.114 312.449 709.118 315.916 709.603 318.782C712.383 335.21 716.191 351.349 723.586 366.428C723.959 367.191 724.217 367.968 723.698 368.952C721.067 370.666 718.908 368.772 717.06 367.417C705.556 358.985 698.45 347.36 693.677 334.178C691.868 329.181 690.351 324.074 688.837 318.977C687.836 315.606 685.364 315.896 682.818 316.291C670.413 318.218 658.685 322.274 647.36 327.603C645.595 328.433 643.991 329.786 641.622 329.595C639.697 326.917 641.781 324.853 643.023 322.987C651.118 310.828 663.056 303.835 676.387 298.969C685.306 295.714 685.132 295.945 683.884 286.264C683.251 281.352 682.335 276.436 682.538 271.394C682.681 267.83 681.233 265.923 676.918 266.929C666.527 269.352 656.409 272.471 646.744 277.012C645.023 277.82 643.1 279.876 641.394 277.857C639.671 275.816 641.571 273.669 642.785 272.027C650.821 261.159 661.361 253.585 674.092 249.173C681.605 246.57 681.707 246.751 681.645 238.709C681.546 225.751 683.04 212.876 683.562 199.952C683.681 197.015 685.099 195.938 687.694 196.531C692.874 197.714 698.03 199.029 703.142 200.479C706.782 201.512 706.709 204.705 706.263 207.475C704.824 216.418 705.442 225.403 705.361 234.372C705.301 240.925 705.472 240.923 711.728 239.826C716.459 238.995 721.22 238.029 725.995 237.851C730.786 237.672 732.57 235.304 732.657 231.018C732.849 221.55 732.375 212.067 733.62 202.622C733.925 200.306 733.912 198.009 735.501 195.832C741.083 197.224 746.689 198.671 752.322 200.005C755.44 200.743 756.593 202.535 756.388 205.736C755.856 214.02 757.183 222.361 755.494 230.63C754.764 234.206 756.618 235.987 760.246 235.825C772.072 235.295 783.85 236.525 795.655 236.788C800.448 236.894 805.229 237.431 810.02 237.697C813.306 237.88 814.995 238.761 813.715 242.664C812.273 247.065 811.297 251.652 810.503 256.224C809.829 260.108 807.499 261.166 804.102 260.803C790.823 259.383 777.505 260.201 764.208 260.127C757.414 260.089 756.39 261.449 756.36 268.085C756.34 272.251 756.29 276.419 756.409 280.581C756.529 284.791 758.025 287.295 763.048 287.059C777.188 286.395 791.313 287.479 805.441 288.041C806.272 288.074 807.11 288.082 807.933 288.196C814.721 289.131 815.162 289.563 813.081 295.992C811.465 300.987 812.357 308.034 807.955 310.527C804.027 312.751 797.93 310.987 792.809 311.297C783.632 311.852 774.563 310.101 765.414 310.243C759.566 310.334 758.403 311.427 759.498 316.996C762.801 333.788 766.575 350.459 774.178 365.97C774.607 366.846 775.302 367.639 774.932 368.765C773.286 370.598 771.696 369.623 770.032 368.766C764.088 365.704 759.706 360.809 755.812 355.672C747.139 344.231 742.009 331.126 739.596 317.024C738.879 312.838 737.292 310.819 732.793 311.204C726.51 311.743 720.193 311.894 713.451 312.223ZM727.904 288.653C732.493 288.486 734.019 286.199 733.789 281.599C733.525 276.3 732.088 271.082 732.692 265.739C733.129 261.872 731.125 260.775 727.642 261.004C722.52 261.341 717.388 261.708 712.259 261.716C707.345 261.724 705.274 263.106 705.472 267.988C705.725 274.269 706.516 280.521 706.475 286.837C706.456 289.649 708.133 290.912 711.192 290.163C716.379 288.892 721.698 288.716 727.904 288.653Z" fill="#E82F2A"/>
<path d="M464.381 366.187C452.275 363.562 440.266 362.807 428.799 359.315C423.401 357.671 418.054 355.855 412.181 353.955C415.123 350.766 417.943 351.544 420.617 352.122C442.479 356.846 464.3 356.585 485.439 349.305C502.776 343.333 514.595 330.762 522.014 313.944C528.186 299.953 532.897 285.42 538.467 271.209C542.704 260.398 547.024 249.633 553.468 239.859C555.414 236.908 557.745 235.578 561.321 235.767C567.284 236.082 573.289 235.344 579.199 236.934C583.289 238.034 584.866 240.047 582.726 244.095C580.323 248.641 577.762 253.119 575.624 257.788C565.954 278.906 558.3 300.882 548.842 322.061C540.643 340.423 528.073 355.394 508.294 362.521C499.462 365.704 490.255 366.759 480.839 366.271C475.52 365.995 470.176 366.213 464.381 366.187Z" fill="#E82F2A"/>
<path d="M352.723 496.862C344.306 469.569 358.298 447.218 385.619 442.1C406.629 438.164 427.557 448.692 435.635 465.787C444.946 485.491 435.259 509.894 415.082 518.161C401.675 523.654 388.322 523.813 374.907 518.55C364.636 514.522 357.883 506.752 352.723 496.862ZM386.309 494.214C393.985 497.507 400.783 495.035 406.741 490.339C415.416 483.502 415.185 471.124 406.79 463.922C401.725 459.577 395.771 458.562 389.507 459.278C379.135 460.464 369.459 471.766 373.521 482.147C375.729 487.79 379.776 491.831 386.309 494.214Z" fill="#3DAA35"/>
<path d="M190.644 481.775C190.946 462.023 206.605 444.578 225.725 441.646C238.519 439.684 250.071 442.621 260.894 449.155C274.967 457.65 280.201 472.642 278.098 488.816C275.61 507.949 255.648 522.787 237.5 522.431C228.554 522.256 219.979 521.134 211.93 517.042C197.676 509.796 190.525 498.228 190.644 481.775ZM247.798 464.678C242.668 460.53 236.962 458.474 230.226 459.1C218.828 460.16 212.004 470.097 212.698 479.08C213.323 487.167 220.631 493.252 230.528 495.366C237.199 496.791 247.457 492.092 251.342 485.308C254.387 479.989 255.204 473.076 247.798 464.678Z" fill="#3DAA35"/>
<path d="M655.959 20.9993C652.511 22.9345 649.253 24.5353 646.558 27.5877C650.845 30.7327 655.606 31.1885 660.285 31.982C666.3 33.0019 672.451 32.9783 678.245 35.5893C687.661 39.8324 689.202 48.9455 681.114 55.6347C675.853 59.9867 669.537 62.714 663.613 66.021C657.245 69.5754 650.815 73.0254 644.061 75.8303C642.821 76.3449 641.675 77.1818 640.304 76.7705C632.061 74.2987 623.832 71.7804 615.614 69.2291C615.229 69.1096 614.988 68.5261 614.023 67.3747C627.466 60.9858 642.318 58.1579 655.463 48.4495C648.677 47.2275 643.405 46.3674 638.173 45.3108C632.967 44.2597 627.828 42.9621 623.064 40.4639C617.549 37.5718 615.542 31.991 617.768 26.1477C619.811 20.7825 623.412 16.8342 628.152 13.8021C637.312 7.94218 647.326 3.90537 657.764 1.22231C663.319 -0.205469 668.779 2.79789 674.222 4.04809C677.74 4.85622 681.124 6.24669 685.469 7.67193C676.044 13.8269 665.309 15.5335 655.959 20.9993Z" fill="#3DAA35"/>
<path d="M90.6253 310.995C91.2001 313.716 93.4758 313.35 95.3608 313.618C96.8348 313.827 98.4137 313.509 99.829 313.876C103.175 314.744 106.868 315.341 107.875 319.541C108.818 323.475 106.216 325.811 103.669 327.939C95.4825 334.78 86.3662 338.335 75.5673 335.261C74.1661 334.863 72.5907 334.752 71.4631 332.796C75.4259 328.092 82.047 327.946 86.9421 324.355C85.2032 322.265 82.9254 322.445 80.6924 322.311C76.5629 322.062 72.3864 321.154 71.0446 316.736C69.6737 312.221 71.3372 308.22 75.3005 305.376C79.5118 302.354 84.1881 300.241 88.9323 298.227C90.9575 297.368 92.7406 297.68 94.6898 298.441C98.3402 299.866 102.066 301.097 106.717 302.748C101.617 307.122 95.542 307.687 90.6253 310.995Z" fill="#E82F2A"/>
<path d="M402.378 220.488C397.618 222.582 393.59 226.725 388.169 223.859C382.592 220.911 377.845 217.088 376.407 210.445C375.651 206.949 376.048 204.139 379.449 201.808C383.912 198.749 388.734 196.649 393.765 194.931C396.415 194.026 398.466 194.353 399.428 197.764C400.862 202.847 404.202 206.86 408.058 210.369C412.366 214.288 412.388 214.758 407.475 217.67C405.913 218.597 404.283 219.411 402.378 220.488Z" fill="#E82F2A"/>
</svg>
